<?xml version="1.0" encoding="utf-8"?>
<!-- Generator: Adobe Illustrator 17.0.0, SVG Export Plug-In . SVG Version: 6.00 Build 0)  -->
<!DOCTYPE svg PUBLIC "-//W3C//DTD SVG 1.1//EN" "http://www.w3.org/Graphics/SVG/1.1/DTD/svg11.dtd">
<svg version="1.1" id="Layer_1" xmlns="http://www.w3.org/2000/svg" xmlns:xlink="http://www.w3.org/1999/xlink" x="0px" y="0px"
	 width="265.613px" height="41.408px" viewBox="0 0 265.613 41.408" enable-background="new 0 0 265.613 41.408"
	 xml:space="preserve">
<g>
	<g>
		<path d="M65.307,22.531c-0.155,2.142-0.945,3.828-2.372,5.059s-3.307,1.846-5.64,1.846c-2.552,0-4.56-0.859-6.022-2.577
			s-2.194-4.076-2.194-7.075v-1.217c0-1.914,0.337-3.6,1.012-5.059c0.675-1.458,1.639-2.577,2.892-3.356s2.709-1.169,4.368-1.169
			c2.297,0,4.147,0.615,5.551,1.846s2.215,2.958,2.434,5.182h-4.102c-0.101-1.285-0.458-2.217-1.073-2.796
			c-0.615-0.579-1.552-0.868-2.81-0.868c-1.367,0-2.391,0.49-3.069,1.47c-0.679,0.98-1.027,2.5-1.046,4.56v1.504
			c0,2.151,0.326,3.724,0.978,4.717s1.68,1.49,3.083,1.49c1.267,0,2.213-0.289,2.837-0.868s0.982-1.475,1.073-2.687H65.307z"/>
		<path d="M72.361,29.162H68.26V9.255h4.102V29.162z"/>
		<path d="M83.531,21.875h-3.268v7.287h-4.102V9.255h7.396c2.352,0,4.165,0.524,5.441,1.572c1.276,1.048,1.914,2.529,1.914,4.443
			c0,1.358-0.294,2.49-0.882,3.397s-1.479,1.629-2.673,2.167l4.307,8.135v0.191h-4.402L83.531,21.875z M80.264,18.552h3.309
			c1.03,0,1.827-0.262,2.393-0.786s0.848-1.246,0.848-2.167c0-0.938-0.267-1.677-0.8-2.215c-0.533-0.538-1.352-0.807-2.454-0.807
			h-3.295V18.552z"/>
		<path d="M109.658,22.531c-0.155,2.142-0.945,3.828-2.372,5.059s-3.307,1.846-5.64,1.846c-2.552,0-4.56-0.859-6.022-2.577
			s-2.194-4.076-2.194-7.075v-1.217c0-1.914,0.337-3.6,1.012-5.059c0.675-1.458,1.639-2.577,2.892-3.356s2.709-1.169,4.368-1.169
			c2.297,0,4.147,0.615,5.551,1.846s2.215,2.958,2.434,5.182h-4.102c-0.101-1.285-0.458-2.217-1.073-2.796
			c-0.615-0.579-1.552-0.868-2.81-0.868c-1.367,0-2.391,0.49-3.069,1.47c-0.679,0.98-1.027,2.5-1.046,4.56v1.504
			c0,2.151,0.326,3.724,0.978,4.717s1.68,1.49,3.083,1.49c1.267,0,2.213-0.289,2.837-0.868s0.982-1.475,1.073-2.687H109.658z"/>
		<path d="M116.453,25.867h8.709v3.295h-12.811V9.255h4.102V25.867z"/>
		<path d="M139.49,20.535h-7.875v5.332h9.242v3.295h-13.344V9.255h13.316v3.322h-9.215v4.744h7.875V20.535z"/>
		<path d="M153.586,23.939c0-0.774-0.273-1.369-0.82-1.784s-1.531-0.853-2.953-1.313s-2.548-0.914-3.377-1.36
			c-2.261-1.222-3.391-2.866-3.391-4.936c0-1.075,0.303-2.035,0.909-2.878c0.606-0.843,1.477-1.501,2.611-1.976
			c1.135-0.474,2.408-0.711,3.821-0.711c1.422,0,2.688,0.258,3.801,0.772c1.112,0.515,1.976,1.242,2.591,2.181
			c0.615,0.939,0.923,2.005,0.923,3.199H153.6c0-0.911-0.287-1.62-0.861-2.126s-1.381-0.759-2.42-0.759
			c-1.003,0-1.782,0.212-2.338,0.636s-0.834,0.982-0.834,1.675c0,0.647,0.326,1.189,0.978,1.627s1.611,0.848,2.878,1.23
			c2.333,0.702,4.033,1.572,5.1,2.611s1.6,2.333,1.6,3.883c0,1.723-0.651,3.074-1.955,4.054s-3.058,1.47-5.264,1.47
			c-1.531,0-2.926-0.28-4.184-0.841s-2.217-1.328-2.878-2.304s-0.991-2.105-0.991-3.391h4.115c0,2.196,1.313,3.295,3.938,3.295
			c0.976,0,1.736-0.198,2.283-0.595S153.586,24.65,153.586,23.939z"/>
		<path d="M176.801,19.66c0,1.859-0.301,3.475-0.902,4.847s-1.436,2.473-2.502,3.302l3.309,2.598l-2.611,2.311l-4.238-3.404
			c-0.483,0.082-0.984,0.123-1.504,0.123c-1.649,0-3.122-0.396-4.416-1.189s-2.297-1.926-3.008-3.397s-1.071-3.165-1.08-5.079
			v-0.984c0-1.96,0.354-3.685,1.06-5.175s1.704-2.634,2.994-3.432c1.29-0.797,2.764-1.196,4.423-1.196s3.133,0.399,4.423,1.196
			c1.29,0.798,2.288,1.941,2.994,3.432s1.06,3.211,1.06,5.161V19.66z M172.645,18.757c0-2.087-0.374-3.673-1.121-4.758
			c-0.747-1.084-1.813-1.627-3.199-1.627c-1.376,0-2.438,0.536-3.186,1.606c-0.747,1.071-1.126,2.641-1.135,4.71v0.971
			c0,2.032,0.374,3.609,1.121,4.73s1.823,1.682,3.227,1.682c1.376,0,2.434-0.54,3.172-1.62s1.112-2.654,1.121-4.724V18.757z"/>
		<path d="M194.875,9.255v13.111c0,2.179-0.682,3.901-2.044,5.168s-3.225,1.9-5.585,1.9c-2.324,0-4.17-0.615-5.537-1.846
			s-2.064-2.921-2.092-5.072V9.255h4.102v13.139c0,1.304,0.313,2.254,0.937,2.851s1.488,0.896,2.591,0.896
			c2.306,0,3.478-1.212,3.514-3.637V9.255H194.875z"/>
		<path d="M209.176,25.06h-7.191l-1.367,4.102h-4.361l7.41-19.906h3.801l7.451,19.906h-4.361L209.176,25.06z M203.092,21.738h4.977
			l-2.502-7.451L203.092,21.738z"/>
		<path d="M224.146,21.875h-3.268v7.287h-4.102V9.255h7.396c2.352,0,4.165,0.524,5.441,1.572c1.276,1.048,1.914,2.529,1.914,4.443
			c0,1.358-0.294,2.49-0.882,3.397s-1.479,1.629-2.673,2.167l4.307,8.135v0.191h-4.402L224.146,21.875z M220.879,18.552h3.309
			c1.03,0,1.827-0.262,2.393-0.786s0.848-1.246,0.848-2.167c0-0.938-0.267-1.677-0.8-2.215c-0.533-0.538-1.352-0.807-2.454-0.807
			h-3.295V18.552z"/>
		<path d="M246.623,20.535h-7.875v5.332h9.242v3.295h-13.344V9.255h13.316v3.322h-9.215v4.744h7.875V20.535z"/>
		<path d="M250.396,29.162V9.255h6.125c1.75,0,3.315,0.395,4.696,1.183c1.381,0.789,2.459,1.91,3.233,3.363
			c0.774,1.454,1.162,3.105,1.162,4.956v0.916c0,1.851-0.381,3.495-1.142,4.936s-1.834,2.557-3.22,3.35s-2.948,1.194-4.689,1.203
			H250.396z M254.498,12.578v13.289h1.982c1.604,0,2.83-0.524,3.678-1.572s1.28-2.548,1.299-4.498v-1.053
			c0-2.023-0.419-3.557-1.258-4.601c-0.839-1.043-2.064-1.565-3.678-1.565H254.498z"/>
	</g>
	<path d="M24.096,6v18.015H6V6H24.096 M30.096,0H0v30.015h30.096V0L30.096,0z"/>
	<path d="M26.214,16.494c5.49,0,9.957,4.467,9.957,9.957s-4.467,9.957-9.957,9.957s-9.957-4.467-9.957-9.957
		S20.723,16.494,26.214,16.494 M26.214,11.494c-8.26,0-14.957,6.696-14.957,14.957s6.696,14.957,14.957,14.957
		c8.26,0,14.957-6.696,14.957-14.957S34.474,11.494,26.214,11.494L26.214,11.494z"/>
</g>
</svg>
