<svg width="30" height="30" viewBox="0 0 30 30" fill="none" xmlns="http://www.w3.org/2000/svg">
<path fill-rule="evenodd" clip-rule="evenodd" d="M28.7503 0H1.25062C0.559687 0 0 0.559688 0 1.24969V28.7503C0 29.4403 0.559687 30 1.25062 30H15.9375V18.75H12.1875V14.0625H15.9375V10.3125C15.9375 6.43781 18.3909 4.53094 21.8475 4.53094C23.5031 4.53094 24.9262 4.65469 25.3406 4.70906V8.75906L22.9434 8.76C21.0637 8.76 20.625 9.65344 20.625 10.9641V14.0625H25.3125L24.375 18.75H20.625L20.7 30H28.7503C29.4403 30 30 29.4403 30 28.7503V1.24969C30 0.559688 29.4403 0 28.7503 0Z" fill="#1976D2"/>
</svg>
