<svg width="30" height="30" viewBox="0 0 30 30" fill="none" xmlns="http://www.w3.org/2000/svg">
<path d="M0 0V30H30V0H0ZM23.635 15.506C23.621 15.627 23.607 15.749 23.594 15.87C23.387 17.728 22.678 19.367 21.425 20.757C20.095 22.233 18.448 23.154 16.488 23.501C16.163 23.558 15.834 23.591 15.507 23.635C15.17 23.635 14.832 23.635 14.495 23.635C14.452 23.625 14.409 23.61 14.365 23.607C13.014 23.512 11.751 23.125 10.598 22.419C8.36 21.048 6.983 19.071 6.5 16.486C6.44 16.162 6.41 15.833 6.366 15.506C6.366 15.169 6.366 14.831 6.366 14.494C6.38 14.373 6.394 14.251 6.407 14.13C6.614 12.272 7.323 10.633 8.576 9.243C9.906 7.767 11.553 6.846 13.513 6.499C13.838 6.442 14.167 6.409 14.494 6.365C14.809 6.365 15.124 6.365 15.438 6.365C15.504 6.374 15.57 6.385 15.636 6.393C15.909 6.425 16.184 6.446 16.455 6.491C17.588 6.681 18.639 7.087 19.609 7.702C19.83 7.843 20.042 7.999 20.264 8.153C19.588 9.031 18.924 9.893 18.26 10.755C15.988 9.039 13.008 9.465 11.268 11.177C9.633 12.786 9.125 15.329 10.285 17.509C11.376 19.56 13.687 20.731 16.121 20.224C18.263 19.777 19.694 18.051 20.054 16.644C18.372 16.644 16.693 16.644 15.009 16.644C15.009 15.542 15.009 14.455 15.009 13.353C15.091 13.353 15.163 13.353 15.235 13.353C17.961 13.353 20.688 13.353 23.414 13.353C23.487 13.353 23.56 13.35 23.633 13.348C23.635 14.067 23.635 14.786 23.635 15.506Z" fill="#F44336"/>
</svg>
